<?xml version="1.0" encoding="UTF-8"?>
<svg id="Calque_1" xmlns="http://www.w3.org/2000/svg" version="1.1" viewBox="0 0 256 256">
  <!-- Generator: Adobe Illustrator 29.2.1, SVG Export Plug-In . SVG Version: 2.1.0 Build 116)  -->
  <defs>
    <style>
      .st0 {
        fill: #f2ad69;
      }
    </style>
  </defs>
  <path class="st0" d="M139.1,97.3s0,0,0-.3c.1-1.4-.9-2.6-2.3-2.8-9.2-1-16.8-1.2-22.7-1-1.2,0-2.1.9-2.2,2.1-3,38.8,12.5,66,18,75.6l.8,1.2-1.3-.9c-6.3-5.3-12.7-10.6-19-15.9-2-1.7-5-1.6-7,.2-4,3.8-9.1,9.2-12.8,14.6,0,0,0,0,0,0,.2-.1,9.2,7.8,20.5,14.6,13.1,7.9,26.8,15.5,39.4,24.3,5.7,4,10.4,8.9,13.2,15.4,1.7,3.9,2.2,8,.5,12.1-2.9,7.1-9.5,13.6-16.2,17-.8.4-2.8,1.7-2.5,2.3-.2,0,7.1-2.3,13.6-4.1,1.8-.5,5.1-1.7,6.6-2.7,12.1-8.5,19.4-33.2,4.6-53.2-33.3-44.8-31.4-97.8-31.3-98.6h0Z"/>
  <path class="st0" d="M107.2,146c2.4-2,3.7-5.6,3.4-6.9-1.8-7.1-3.2-15.9-3.9-20.8-39.3,18.9-47,55.7-49,61.1,0-.2-.1-.4-.1-.6-.1-4.4-.4-8.9-.3-13.3,0-4.6.4-9.1.7-13.7,0-.9-.3-1.8-1.1-2.4-9.5-7.3-16.6-11.2-21.2-13.2,0,0-11.7,66.5,40.9,105.2,25,18.4,44.9,13.7,57.9,14.7-19.6-1-30.5-7.8-35.6-12.8-46.8-45.3-5.7-85.7,8.3-97.2h0Z"/>
  <path class="st0" d="M35.8,48.9c5.2-4.5,24.5-16.5,28.4-20,0,0,0,0,0,0,1-.9,32.6-28.4,79-24,19.2,1.8,36.8,9.6,40.8,17.3,1.3,6.7-10.8,7.7-9.3,2,.8-2.8-21.4-14.1-39.4-8.7-57.1,17.2-88.3,64.7-96.2,92.9,4.3.8,11.2,3.2,21.7,8.8,1.4.7,3,0,3.5-1.4.2-.8.5-1.6.8-2.3,5.2-15.1,24-59.6,70.4-86.9-5.1,8.4-10.7,17.8-13.9,25.6,6.4.2,14.8.7,23.2,2,2.3-8.8,5.6-17.2,7.8-22.7,3-7.4,12.1-9.1,19.4-4.5s11.6,11.3,23.7,9c2.9-.6,4.6-1.6,5.4-3,1.4-1.8,1.8-4.9-2.7-10-.1-.1-.2-.3-.4-.4-9.1-9.9-45.5-28.2-91.5-21C60.5,8.8,35,42.8,32.9,45.7c-1,1.4-4.2,5.1-7.2,9.4-5,7.1-10.4,15.5-10.4,15.5,0,0,10.8-13.3,20.5-21.7Z"/>
  <path class="st0" d="M26,193.7c-14.9-18.2-24.6-55.2-13-63.3s30.9,5,30.9,5c.7.4,12.6,8.2,18.5,12.1,1.7,1.1,4.1.6,5.2-1.1,2-3.2,5.3-7.6,10.5-13.3-5.3-3.3-10.6-6.5-16-9.4-9.3-4.8-17.2-7.8-23.9-9.6-8.1-2.3-13.5-2.2-15.5-2.1-11,.2-15.3,4.7-15.3,4.7,5.8-6.2,15-11,25.4-14.9,1.5-.6,2.7-1.7,3.4-3.1,10.6-23.1,17.3-31.1,18.8-33.1,0,0-.1,0-.2,0-.2,0-.5.2-.8.4-6,2.5-38.8,17.5-50,48.4C1.4,121.1-.2,128.4,0,136.4c-1.1,38.5,25.8,70.9,36.5,81.5,5.8,5.8,11.8,10.6,16.3,14,1,.7,1.9,1.4,2.9,2.2.9.6,1.8,1.3,2.8,1.9,1.4.9,2.2,1.4,2.2,1.4,0,0,.2,0,.2,0,1,.1,4.3-.1-4.7-12.2-10.2-13.7-15.3-13.4-30.3-31.6h0Z"/>
  <path class="st0" d="M251.1,93.7c-.3-1.1-.7-2.2-1-3.3-6.7-20.6-20.2-38.2-37.9-50,13,10.7,20.6,19.6,26.5,35.7,2.4,6.4,3,14.9,3.8,22.2,0,3.6.5,7.2,1.8,10.5h0c.1.6,13.4,47.6-15.4,86.4,0,0,0,0,0,0-.1.2-13.7,13.9-19.5,7.6-4-4.4.1-12.5.1-12.5,0,0,0,0,0,0,1.9-5.5,5.7-13,10.4-24.6.6-1.3,1.1-2.5,1.6-3.5,4.1-8.7,15.6-42.2-6.6-68.2-36.4-42.7-98.5-38.4-109.2-37.3-1,0-1.9.6-2.6,1.4-8,9.7-15.5,21.9-19.1,28.2-1.5,2.6.6,3.6,3.6,3.2,15.5-1.9,57.1-5,96.8,10.8-.3,0-.5.1-.8.1-17.4-.5-27.9,1.6-37.4,3.4-1.4.3-2.4,1.5-2.3,2.9.4,7.6,1.3,15.3,2,19.6.3,2.2,1.9,3,2.9,2.7,12.3-3.5,57.1-13.4,56.9,14.1,0,13.4-12.7,36.6-15.9,46.6-4.8,14.6-1.2,27.3,5.5,32.6,6.7,5.3,15.5.6,15.5.6,0,0,0,0,0-.1,6.4-2.9,26.5-14.3,38.9-56.1,11.9-39.9,3.3-67.7,1.3-73.2h0Z"/>
</svg>